<svg xmlns="http://www.w3.org/2000/svg" xmlns:xlink="http://www.w3.org/1999/xlink" version="1.1" x="0px" y="0px" viewBox="0 0 131 163.75" enable-background="new 0 0 131 131" xml:space="preserve"><g><path d="M104.2182617,39.5166016H72.1416016c-4.7402344,0-8.5966797,3.8564453-8.5966797,8.5966797v73.2900391   c0,4.7402344,3.8564453,8.5966797,8.5966797,8.5966797h32.0766602c4.7407227,0,8.597168-3.8564453,8.597168-8.5966797v-16.8232422   h-2v16.8232422c0,3.6376953-2.9594727,6.5966797-6.597168,6.5966797H72.1416016   c-3.637207,0-6.5966797-2.9589844-6.5966797-6.5966797V48.1132813c0-3.6376953,2.9594727-6.5966797,6.5966797-6.5966797h32.0766602   c3.6376953,0,6.597168,2.9589844,6.597168,6.5966797V62.1875h2V48.1132813   C112.8154297,43.3730469,108.9589844,39.5166016,104.2182617,39.5166016z"/><path d="M94.4121094,49.1152344c0.5522461,0,1-0.4472656,1-1s-0.4477539-1-1-1H81.9462891c-0.5522461,0-1,0.4472656-1,1   s0.4477539,1,1,1H94.4121094z"/><path d="M25.2807617,64.3867188L20.003418,59.109375l-1.4140625,1.4140625l5.984375,5.984375   c0.1953125,0.1953125,0.4511719,0.2929688,0.7070313,0.2929688s0.5117188-0.0976563,0.7070313-0.2929688l17.402832-17.4023438   l-1.4140625-1.4140625L25.2807617,64.3867188z"/><path d="M49.1254883,39.5185547H12.8544922c-2.8369141,0-5.1450195,2.3085938-5.1450195,5.1455078v24.8710938   c0,2.8369141,2.3081055,5.1455078,5.1450195,5.1455078h36.2709961c2.8369141,0,5.1450195-2.3085938,5.1450195-5.1455078V44.6640625   C54.2705078,41.8271484,51.9624023,39.5185547,49.1254883,39.5185547z M52.2705078,69.5351563   c0,1.734375-1.4106445,3.1455078-3.1450195,3.1455078H12.8544922c-1.734375,0-3.1450195-1.4111328-3.1450195-3.1455078V44.6640625   c0-1.734375,1.4106445-3.1455078,3.1450195-3.1455078h36.2709961c1.734375,0,3.1450195,1.4111328,3.1450195,3.1455078V69.5351563z"/><path d="M19.1552734,78.078125H8.7094727c-0.5522461,0-1,0.4472656-1,1v7.1171875c0,0.5527344,0.4477539,1,1,1h10.4458008   c0.5522461,0,1-0.4472656,1-1V79.078125C20.1552734,78.5253906,19.7075195,78.078125,19.1552734,78.078125z M18.1552734,85.1953125   H9.7094727V80.078125h8.4458008V85.1953125z"/><path d="M36.2128906,78.078125H25.7670898c-0.5522461,0-1,0.4472656-1,1v7.1171875c0,0.5527344,0.4477539,1,1,1h10.4458008   c0.5522461,0,1-0.4472656,1-1V79.078125C37.2128906,78.5253906,36.7651367,78.078125,36.2128906,78.078125z M35.2128906,85.1953125   h-8.4458008V80.078125h8.4458008V85.1953125z"/><path d="M53.2705078,78.078125H42.824707c-0.5522461,0-1,0.4472656-1,1v7.1171875c0,0.5527344,0.4477539,1,1,1h10.4458008   c0.5522461,0,1-0.4472656,1-1V79.078125C54.2705078,78.5253906,53.8227539,78.078125,53.2705078,78.078125z M52.2705078,85.1953125   H43.824707V80.078125h8.4458008V85.1953125z"/><path d="M19.1552734,90.2568359H8.7094727c-0.5522461,0-1,0.4472656-1,1v7.1171875c0,0.5527344,0.4477539,1,1,1h10.4458008   c0.5522461,0,1-0.4472656,1-1v-7.1171875C20.1552734,90.7041016,19.7075195,90.2568359,19.1552734,90.2568359z    M18.1552734,97.3740234H9.7094727v-5.1171875h8.4458008V97.3740234z"/><path d="M36.2128906,90.2568359H25.7670898c-0.5522461,0-1,0.4472656-1,1v7.1171875c0,0.5527344,0.4477539,1,1,1h10.4458008   c0.5522461,0,1-0.4472656,1-1v-7.1171875C37.2128906,90.7041016,36.7651367,90.2568359,36.2128906,90.2568359z    M35.2128906,97.3740234h-8.4458008v-5.1171875h8.4458008V97.3740234z"/><path d="M53.2705078,90.2568359H42.824707c-0.5522461,0-1,0.4472656-1,1v7.1171875c0,0.5527344,0.4477539,1,1,1h10.4458008   c0.5522461,0,1-0.4472656,1-1v-7.1171875C54.2705078,90.7041016,53.8227539,90.2568359,53.2705078,90.2568359z    M52.2705078,97.3740234H43.824707v-5.1171875h8.4458008V97.3740234z"/><path d="M19.1552734,102.4365234H8.7094727c-0.5522461,0-1,0.4472656-1,1v7.1171875c0,0.5527344,0.4477539,1,1,1h10.4458008   c0.5522461,0,1-0.4472656,1-1v-7.1171875C20.1552734,102.8837891,19.7075195,102.4365234,19.1552734,102.4365234z    M18.1552734,109.5537109H9.7094727v-5.1171875h8.4458008V109.5537109z"/><path d="M36.2128906,102.4365234H25.7670898c-0.5522461,0-1,0.4472656-1,1v7.1171875c0,0.5527344,0.4477539,1,1,1h10.4458008   c0.5522461,0,1-0.4472656,1-1v-7.1171875C37.2128906,102.8837891,36.7651367,102.4365234,36.2128906,102.4365234z    M35.2128906,109.5537109h-8.4458008v-5.1171875h8.4458008V109.5537109z"/><path d="M53.2705078,102.4365234H42.824707c-0.5522461,0-1,0.4472656-1,1v7.1171875c0,0.5527344,0.4477539,1,1,1h10.4458008   c0.5522461,0,1-0.4472656,1-1v-7.1171875C54.2705078,102.8837891,53.8227539,102.4365234,53.2705078,102.4365234z    M52.2705078,109.5537109H43.824707v-5.1171875h8.4458008V109.5537109z"/><path d="M19.1552734,114.6152344H8.7094727c-0.5522461,0-1,0.4472656-1,1v7.1171875c0,0.5527344,0.4477539,1,1,1h10.4458008   c0.5522461,0,1-0.4472656,1-1v-7.1171875C20.1552734,115.0625,19.7075195,114.6152344,19.1552734,114.6152344z    M18.1552734,121.7324219H9.7094727v-5.1171875h8.4458008V121.7324219z"/><path d="M36.2128906,114.6152344H25.7670898c-0.5522461,0-1,0.4472656-1,1v7.1171875c0,0.5527344,0.4477539,1,1,1h10.4458008   c0.5522461,0,1-0.4472656,1-1v-7.1171875C37.2128906,115.0625,36.7651367,114.6152344,36.2128906,114.6152344z    M35.2128906,121.7324219h-8.4458008v-5.1171875h8.4458008V121.7324219z"/><path d="M53.2705078,114.6152344H42.824707c-0.5522461,0-1,0.4472656-1,1v7.1171875c0,0.5527344,0.4477539,1,1,1h10.4458008   c0.5522461,0,1-0.4472656,1-1v-7.1171875C54.2705078,115.0625,53.8227539,114.6152344,53.2705078,114.6152344z    M52.2705078,121.7324219H43.824707v-5.1171875h8.4458008V121.7324219z"/><rect x="14.7783203" y="8.8398438" width="31.4418945" height="2"/><rect x="14.7783203" y="15.4707031" width="31.4418945" height="2"/><rect x="14.7783203" y="22.1005859" width="31.4418945" height="2"/><rect x="14.7783203" y="28.7314453" width="31.4418945" height="2"/><path d="M55.1020508,1h-0.0004883H13.8564453c-2.5683594,0-4.6582031,2.0898438-4.6582031,4.6582031v23.6640625H6.6333008   c-2.8374023,0-5.1455078,2.3085938-5.1455078,5.1455078v90.3349609c0,2.8369141,2.3081055,5.1445313,5.1455078,5.1445313h48.706543   c2.8369141,0,5.1450195-2.3076172,5.1450195-5.1445313V34.4677734c0-2.8369141-2.3081055-5.1455078-5.1450195-5.1455078h-3.5805664   v-2.3525391c1.3580475-0.0001087,10.8531876-0.0009766,12.2177734-0.0009766c3.0288086,0,5.4926758-2.4638672,5.4926758-5.4921875   v-8.078125c0-0.5527344-0.4477539-1-1-1h-7.9848633V6.3417969C60.4848633,3.3967285,58.0889282,1.0004883,55.1020508,1z    M11.1982422,5.6582031C11.1982422,4.1923828,12.390625,3,13.8564453,3H50.9375   c-0.7631836,0.9462891-1.1782227,2.1132813-1.1782227,3.3417969v29.3740234H11.1982422V5.6582031z M55.3398438,31.3222656   c1.734375,0,3.1450195,1.4111328,3.1450195,3.1455078v90.3349609c0,1.734375-1.4106445,3.1445313-3.1450195,3.1445313H6.6333008   c-1.734375,0-3.1455078-1.4101563-3.1455078-3.1445313V34.4677734c0-1.734375,1.4111328-3.1455078,3.1455078-3.1455078h2.5649414   v4.3945313H7.9179688v2c0.1039801-0.0000038,48.275692-0.0008125,45.3178711,0v-2h-1.4765625v-4.3945313H55.3398438z    M51.8007813,6.3417969c0-1.6630392,1.2119751-3.2413502,3.3416138-3.3500977L55.1425781,3   c1.8427734,0,3.3422852,1.4990234,3.3422852,3.3417969c0,0.1015272,0,15.6094284,0,15.1347656   c0,1.3256836,0.472229,2.5432129,1.2572632,3.4931641h-7.9413452V6.3417969z M67.4697266,14.3984375v7.078125   c0,1.9257813-1.5668945,3.4921875-3.4926758,3.4921875s-3.4921875-1.5664063-3.4921875-3.4921875   c0-0.1935863,0-7.1833792,0-7.078125H67.4697266z"/><path d="M84.1074219,120.7646484c0,2.2431641,1.824707,4.0673828,4.0673828,4.0673828   c2.2475586,0,4.0761719-1.8242188,4.0761719-4.0673828c0-2.2480469-1.8286133-4.0761719-4.0761719-4.0761719   C85.9321289,116.6884766,84.1074219,118.5166016,84.1074219,120.7646484z M90.2509766,120.7646484   c0,1.1396484-0.9311523,2.0673828-2.0761719,2.0673828c-1.1401367,0-2.0673828-0.9277344-2.0673828-2.0673828   c0-1.1445313,0.9272461-2.0761719,2.0673828-2.0761719C89.3198242,118.6884766,90.2509766,119.6201172,90.2509766,120.7646484z"/><path d="M129.512207,70.4394531c0-2.8945313-2.3549805-5.25-5.2495117-5.25H75.1166992c-2.8950195,0-5.25,2.3554688-5.25,5.25   v25.8945313c0,2.8945313,2.3549805,5.25,5.25,5.25h49.1459961c2.8945313,0,5.2495117-2.3554688,5.2495117-5.25V70.4394531z    M127.512207,96.3339844c0,1.7919922-1.4575195,3.25-3.2495117,3.25H75.1166992c-1.7919922,0-3.25-1.4580078-3.25-3.25V70.4394531   c0-1.7919922,1.4580078-3.25,3.25-3.25h49.1459961c1.7919922,0,3.2495117,1.4580078,3.2495117,3.25V96.3339844z"/><rect x="107.2641602" y="70.1445313" width="17.0185547" height="2"/><rect x="75.0961914" y="94.6289063" width="23.7353516" height="2"/><rect x="74.8422852" y="89.5966797" width="12.9765625" height="2"/><rect x="91.784668" y="89.5966797" width="12.9765625" height="2"/><rect x="114.4296875" y="74.4980469" width="9.8530273" height="2"/><path d="M76.2861328,83.8125h13.5532227c0.5522461,0,1-0.4472656,1-1V71.7353516c0-0.5527344-0.4477539-1-1-1H76.2861328   c-0.5522461,0-1,0.4472656-1,1V82.8125C75.2861328,83.3652344,75.7338867,83.8125,76.2861328,83.8125z M88.8393555,72.7353516   v1.4472656H85.496582v2h3.3427734v2.1835938H85.496582v2h3.3427734V81.8125H77.2861328v-1.4462891h3.3442383v-2h-3.3442383   v-2.1835938h3.3442383v-2h-3.3442383v-1.4472656H88.8393555z"/><path d="M119.6762695,87.3457031c-0.7957764,0-1.5588989,0.1955566-2.2411499,0.5593262   c-0.6842651-0.3647461-1.4462891-0.5593262-2.2417603-0.5593262c-2.6484375,0-4.8032227,2.1552734-4.8032227,4.8037109   s2.1547852,4.8027344,4.8032227,4.8027344c0.7896729,0,1.5511475-0.1950684,2.239563-0.5610352   c0.6860962,0.3659668,1.4484863,0.5610352,2.2433472,0.5610352c2.6484375,0,4.8032227-2.1542969,4.8032227-4.8027344   S122.324707,87.3457031,119.6762695,87.3457031z M115.1933594,94.9521484c-1.5458984,0-2.8032227-1.2568359-2.8032227-2.8027344   s1.2573242-2.8037109,2.8032227-2.8037109c0.1855469,0,0.3676758,0.0175781,0.5449219,0.0527344   c-0.4990387,0.690979-0.8647461,1.6897049-0.8647461,2.7509766c0,0.9652176,0.2856979,1.907959,0.8666992,2.7490234   C115.5615234,94.9335938,115.3789063,94.9521484,115.1933594,94.9521484z M119.6762695,94.9521484   c-1.6913681,0-2.9827652-1.5063553-2.784668-3.1035156c0.1104431-1.3106308,1.2794418-2.5029297,2.784668-2.5029297   c1.5458984,0,2.8032227,1.2578125,2.8032227,2.8037109S121.222168,94.9521484,119.6762695,94.9521484z"/></g><text x="0" y="146" fill="#000000" font-size="5px" font-weight="bold" font-family="'Helvetica Neue', Helvetica, Arial-Unicode, Arial, Sans-serif">Created by Vectors Point</text><text x="0" y="151" fill="#000000" font-size="5px" font-weight="bold" font-family="'Helvetica Neue', Helvetica, Arial-Unicode, Arial, Sans-serif">from the Noun Project</text></svg>