<svg aria-hidden="true" style="position: absolute; width: 0; height: 0; overflow: hidden;" version="1.1" xmlns="http://www.w3.org/2000/svg" xmlns:xlink="http://www.w3.org/1999/xlink">
<defs>
<symbol id="applepay" viewBox="0 0 80 32">
<path fill="#fff" style="fill: var(--color1, #fff)" d="M15.278 4.126c-0.913 1.081-2.375 1.933-3.836 1.812-0.183-1.461 0.533-3.014 1.37-3.973 0.913-1.111 2.512-1.903 3.806-1.964 0.152 1.522-0.441 3.014-1.34 4.126zM16.603 6.226c-2.116-0.122-3.928 1.203-4.932 1.203-1.020 0-2.558-1.142-4.232-1.111-2.177 0.030-4.202 1.264-5.313 3.227-2.284 3.928-0.594 9.743 1.614 12.94 1.081 1.583 2.375 3.319 4.080 3.258 1.614-0.061 2.253-1.050 4.202-1.050 1.964 0 2.527 1.050 4.232 1.020 1.766-0.030 2.877-1.583 3.958-3.167 1.233-1.796 1.736-3.547 1.766-3.638-0.030-0.030-3.41-1.324-3.44-5.222-0.031-3.258 2.664-4.811 2.786-4.902-1.522-2.253-3.897-2.497-4.719-2.558zM28.827 1.812v23.734h3.684v-8.114h5.1c4.659 0 7.932-3.197 7.932-7.825s-3.212-7.795-7.81-7.795h-8.906zM32.511 4.917h4.247c3.197 0 5.024 1.705 5.024 4.704s-1.827 4.719-5.039 4.719h-4.232v-9.423zM52.272 25.728c2.314 0 4.461-1.172 5.435-3.029h0.076v2.847h3.41v-11.813c0-3.425-2.74-5.633-6.957-5.633-3.912 0-6.805 2.238-6.911 5.313h3.319c0.274-1.461 1.629-2.421 3.486-2.421 2.253 0 3.517 1.050 3.517 2.984v1.309l-4.598 0.274c-4.278 0.259-6.592 2.009-6.592 5.054 0 3.075 2.39 5.115 5.815 5.115zM53.261 22.912c-1.964 0-3.212-0.944-3.212-2.39 0-1.492 1.203-2.36 3.501-2.497l4.095-0.259v1.34c0 2.223-1.888 3.806-4.384 3.806zM65.744 32c3.593 0 5.283-1.37 6.759-5.526l6.47-18.146h-3.745l-4.339 14.021h-0.076l-4.339-14.021h-3.852l6.242 17.279-0.335 1.050c-0.563 1.781-1.477 2.466-3.106 2.466-0.289 0-0.852-0.030-1.081-0.061v2.847c0.213 0.061 1.127 0.091 1.401 0.091z"></path>
</symbol>
<symbol id="subtract" viewBox="0 0 32 32">
<path fill="#b0b4be" style="fill: var(--color1, #b0b4be)" d="M16 32c-8.837 0-16-7.163-16-16s7.163-16 16-16c8.837 0 16 7.163 16 16s-7.163 16-16 16zM19.064 24.245l0.267-1.094c-0.138 0.065-0.361 0.142-0.668 0.231-0.308 0.081-0.583 0.122-0.826 0.122-0.518 0-0.883-0.085-1.094-0.255s-0.316-0.49-0.316-0.96c0-0.186 0.032-0.462 0.097-0.826s0.138-0.689 0.219-0.972l0.997-3.536c0.097-0.324 0.162-0.681 0.194-1.069 0.041-0.389 0.061-0.66 0.061-0.814 0-0.745-0.263-1.349-0.79-1.811-0.518-0.47-1.26-0.705-2.224-0.705-0.535 0-1.102 0.097-1.701 0.292-0.6 0.186-1.227 0.413-1.884 0.681l-0.267 1.094c0.194-0.073 0.425-0.15 0.693-0.231 0.275-0.081 0.543-0.122 0.802-0.122 0.527 0 0.883 0.089 1.069 0.267s0.28 0.494 0.28 0.948c0 0.251-0.032 0.531-0.097 0.839-0.057 0.3-0.13 0.62-0.219 0.96l-0.997 3.549c-0.089 0.373-0.154 0.709-0.194 1.009-0.040 0.292-0.061 0.579-0.061 0.863 0 0.729 0.267 1.333 0.802 1.811 0.543 0.47 1.3 0.705 2.273 0.705 0.632 0 1.187-0.085 1.665-0.255 0.478-0.162 1.118-0.401 1.92-0.717zM18.882 9.892c0.47-0.438 0.705-0.964 0.705-1.58s-0.235-1.142-0.705-1.58c-0.462-0.438-1.021-0.656-1.677-0.656s-1.219 0.219-1.689 0.656-0.705 0.964-0.705 1.58c0 0.616 0.235 1.142 0.705 1.58 0.47 0.429 1.033 0.644 1.689 0.644s1.215-0.215 1.677-0.644z"></path>
</symbol>
</defs>
</svg>
