<svg aria-hidden="true" style="position: absolute; width: 0; height: 0; overflow: hidden;" version="1.1" xmlns="http://www.w3.org/2000/svg" xmlns:xlink="http://www.w3.org/1999/xlink">
<defs>
<symbol id="applepay" viewBox="0 0 80 32">
<path fill="#fff" style="fill: var(--color1, #fff)" d="M15.278 4.126c-0.913 1.081-2.375 1.933-3.836 1.812-0.183-1.461 0.533-3.014 1.37-3.973 0.913-1.111 2.512-1.903 3.806-1.964 0.152 1.522-0.441 3.014-1.34 4.126zM16.603 6.226c-2.116-0.122-3.928 1.203-4.932 1.203-1.020 0-2.558-1.142-4.232-1.111-2.177 0.030-4.202 1.264-5.313 3.227-2.284 3.928-0.594 9.743 1.614 12.94 1.081 1.583 2.375 3.319 4.080 3.258 1.614-0.061 2.253-1.050 4.202-1.050 1.964 0 2.527 1.050 4.232 1.020 1.766-0.030 2.877-1.583 3.958-3.167 1.233-1.796 1.736-3.547 1.766-3.638-0.030-0.030-3.41-1.324-3.44-5.222-0.031-3.258 2.664-4.811 2.786-4.902-1.522-2.253-3.897-2.497-4.719-2.558zM28.827 1.812v23.734h3.684v-8.114h5.1c4.659 0 7.932-3.197 7.932-7.825s-3.212-7.795-7.81-7.795h-8.906zM32.511 4.917h4.247c3.197 0 5.024 1.705 5.024 4.704s-1.827 4.719-5.039 4.719h-4.232v-9.423zM52.272 25.728c2.314 0 4.461-1.172 5.435-3.029h0.076v2.847h3.41v-11.813c0-3.425-2.74-5.633-6.957-5.633-3.912 0-6.805 2.238-6.911 5.313h3.319c0.274-1.461 1.629-2.421 3.486-2.421 2.253 0 3.517 1.050 3.517 2.984v1.309l-4.598 0.274c-4.278 0.259-6.592 2.009-6.592 5.054 0 3.075 2.39 5.115 5.815 5.115zM53.261 22.912c-1.964 0-3.212-0.944-3.212-2.39 0-1.492 1.203-2.36 3.501-2.497l4.095-0.259v1.34c0 2.223-1.888 3.806-4.384 3.806zM65.744 32c3.593 0 5.283-1.37 6.759-5.526l6.47-18.146h-3.745l-4.339 14.021h-0.076l-4.339-14.021h-3.852l6.242 17.279-0.335 1.050c-0.563 1.781-1.477 2.466-3.106 2.466-0.289 0-0.852-0.030-1.081-0.061v2.847c0.213 0.061 1.127 0.091 1.401 0.091z"></path>
</symbol>
</defs>
</svg>
